<svg xmlns="http://www.w3.org/2000/svg" width="600" height="310" viewBox="0 0 600 310"><rect width="100%" height="100%" fill="#fffdf7"/><text x="150" y="30" font-family="PingFang SC,Heiti SC,sans-serif" font-size="22" fill="#253243" text-anchor="middle">积木</text><polygon points="150,127.0588 200.4412,152.2794 150,177.5 99.5588,152.2794" fill="#c7dfec" stroke="#344555" stroke-width="2.2" stroke-linejoin="round"/><polygon points="99.5588,152.2794 150,177.5 150,227.9412 99.5588,202.7206" fill="#75a1be" stroke="#344555" stroke-width="2.2" stroke-linejoin="round"/><polygon points="150,177.5 200.4412,152.2794 200.4412,202.7206 150,227.9412" fill="#4e7d9d" stroke="#344555" stroke-width="2.2" stroke-linejoin="round"/><polygon points="150,76.6176 200.4412,101.8382 150,127.0588 99.5588,101.8382" fill="#c7dfec" stroke="#344555" stroke-width="2.2" stroke-linejoin="round"/><polygon points="99.5588,101.8382 150,127.0588 150,177.5 99.5588,152.2794" fill="#75a1be" stroke="#344555" stroke-width="2.2" stroke-linejoin="round"/><polygon points="150,127.0588 200.4412,101.8382 200.4412,152.2794 150,177.5" fill="#4e7d9d" stroke="#344555" stroke-width="2.2" stroke-linejoin="round"/><polygon points="200.4412,152.2794 250.8824,177.5 200.4412,202.7206 150,177.5" fill="#c7dfec" stroke="#344555" stroke-width="2.2" stroke-linejoin="round"/><polygon points="150,177.5 200.4412,202.7206 200.4412,253.1618 150,227.9412" fill="#75a1be" stroke="#344555" stroke-width="2.2" stroke-linejoin="round"/><polygon points="200.4412,202.7206 250.8824,177.5 250.8824,227.9412 200.4412,253.1618" fill="#4e7d9d" stroke="#344555" stroke-width="2.2" stroke-linejoin="round"/><polygon points="99.5588,152.2794 150,177.5 99.5588,202.7206 49.1176,177.5" fill="#c7dfec" stroke="#344555" stroke-width="2.2" stroke-linejoin="round"/><polygon points="49.1176,177.5 99.5588,202.7206 99.5588,253.1618 49.1176,227.9412" fill="#75a1be" stroke="#344555" stroke-width="2.2" stroke-linejoin="round"/><polygon points="99.5588,202.7206 150,177.5 150,227.9412 99.5588,253.1618" fill="#4e7d9d" stroke="#344555" stroke-width="2.2" stroke-linejoin="round"/><polygon points="99.5588,101.8382 150,127.0588 99.5588,152.2794 49.1176,127.0588" fill="#c7dfec" stroke="#344555" stroke-width="2.2" stroke-linejoin="round"/><polygon points="49.1176,127.0588 99.5588,152.2794 99.5588,202.7206 49.1176,177.5" fill="#75a1be" stroke="#344555" stroke-width="2.2" stroke-linejoin="round"/><polygon points="99.5588,152.2794 150,127.0588 150,177.5 99.5588,202.7206" fill="#4e7d9d" stroke="#344555" stroke-width="2.2" stroke-linejoin="round"/><polygon points="150,177.5 200.4412,202.7206 150,227.9412 99.5588,202.7206" fill="#c7dfec" stroke="#344555" stroke-width="2.2" stroke-linejoin="round"/><polygon points="99.5588,202.7206 150,227.9412 150,278.3824 99.5588,253.1618" fill="#75a1be" stroke="#344555" stroke-width="2.2" stroke-linejoin="round"/><polygon points="150,227.9412 200.4412,202.7206 200.4412,253.1618 150,278.3824" fill="#4e7d9d" stroke="#344555" stroke-width="2.2" stroke-linejoin="round"/><polygon points="150,127.0588 200.4412,152.2794 150,177.5 99.5588,152.2794" fill="#c7dfec" stroke="#344555" stroke-width="2.2" stroke-linejoin="round"/><polygon points="99.5588,152.2794 150,177.5 150,227.9412 99.5588,202.7206" fill="#75a1be" stroke="#344555" stroke-width="2.2" stroke-linejoin="round"/><polygon points="150,177.5 200.4412,152.2794 200.4412,202.7206 150,227.9412" fill="#4e7d9d" stroke="#344555" stroke-width="2.2" stroke-linejoin="round"/><text x="450" y="30" font-family="PingFang SC,Heiti SC,sans-serif" font-size="22" fill="#253243" text-anchor="middle">从上面标出每摞块数</text><rect x="350.8333" y="78.3333" width="99.1667" height="99.1667" fill="#fffdf7" stroke="#344555" stroke-width="2.2" stroke-linejoin="round" /><text x="400.4167" y="139.5833" font-family="PingFang SC,Heiti SC,sans-serif" font-size="35" fill="#253243" text-anchor="middle">2</text><rect x="450" y="78.3333" width="99.1667" height="99.1667" fill="#fffdf7" stroke="#344555" stroke-width="2.2" stroke-linejoin="round" /><text x="499.5833" y="139.5833" font-family="PingFang SC,Heiti SC,sans-serif" font-size="35" fill="#253243" text-anchor="middle">1</text><rect x="350.8333" y="177.5" width="99.1667" height="99.1667" fill="#fffdf7" stroke="#344555" stroke-width="2.2" stroke-linejoin="round" /><text x="400.4167" y="238.75" font-family="PingFang SC,Heiti SC,sans-serif" font-size="35" fill="#253243" text-anchor="middle">2</text><rect x="450" y="177.5" width="99.1667" height="99.1667" fill="#fffdf7" stroke="#344555" stroke-width="2.2" stroke-linejoin="round" /><text x="499.5833" y="238.75" font-family="PingFang SC,Heiti SC,sans-serif" font-size="35" fill="#253243" text-anchor="middle">2</text></svg>