<svg xmlns="http://www.w3.org/2000/svg" width="600" height="305" viewBox="0 0 600 305"><rect width="100%" height="100%" fill="#fffdf7"/><text x="150" y="26" font-family="PingFang SC,Heiti SC,sans-serif" font-size="24" fill="#253243" text-anchor="middle">左半向右折</text><rect x="30" y="50" width="50" height="50" fill="#fffdf7" stroke="#344555" stroke-width="2.2" stroke-linejoin="round" /><rect x="80" y="50" width="50" height="50" fill="#fffdf7" stroke="#344555" stroke-width="2.2" stroke-linejoin="round" /><rect x="130" y="50" width="50" height="50" fill="#fffdf7" stroke="#344555" stroke-width="2.2" stroke-linejoin="round" /><rect x="180" y="50" width="50" height="50" fill="#fffdf7" stroke="#344555" stroke-width="2.2" stroke-linejoin="round" /><rect x="30" y="100" width="50" height="50" fill="#fffdf7" stroke="#344555" stroke-width="2.2" stroke-linejoin="round" /><rect x="80" y="100" width="50" height="50" fill="#fffdf7" stroke="#344555" stroke-width="2.2" stroke-linejoin="round" /><rect x="130" y="100" width="50" height="50" fill="#fffdf7" stroke="#344555" stroke-width="2.2" stroke-linejoin="round" /><rect x="180" y="100" width="50" height="50" fill="#fffdf7" stroke="#344555" stroke-width="2.2" stroke-linejoin="round" /><rect x="30" y="150" width="50" height="50" fill="#fffdf7" stroke="#344555" stroke-width="2.2" stroke-linejoin="round" /><rect x="80" y="150" width="50" height="50" fill="#fffdf7" stroke="#344555" stroke-width="2.2" stroke-linejoin="round" /><rect x="130" y="150" width="50" height="50" fill="#fffdf7" stroke="#344555" stroke-width="2.2" stroke-linejoin="round" /><rect x="180" y="150" width="50" height="50" fill="#fffdf7" stroke="#344555" stroke-width="2.2" stroke-linejoin="round" /><rect x="30" y="200" width="50" height="50" fill="#fffdf7" stroke="#344555" stroke-width="2.2" stroke-linejoin="round" /><rect x="80" y="200" width="50" height="50" fill="#fffdf7" stroke="#344555" stroke-width="2.2" stroke-linejoin="round" /><rect x="130" y="200" width="50" height="50" fill="#fffdf7" stroke="#344555" stroke-width="2.2" stroke-linejoin="round" /><rect x="180" y="200" width="50" height="50" fill="#fffdf7" stroke="#344555" stroke-width="2.2" stroke-linejoin="round" /><line x1="130" y1="45" x2="130" y2="255" stroke="#548cb3" stroke-width="2.2" stroke-linejoin="round" stroke-dasharray="8 6"/><line x1="65" y1="145" x2="187" y2="145" stroke="#548cb3" stroke-width="2.2" stroke-linejoin="round" /><polygon points="200,145 180,133 180,157" fill="#548cb3" stroke="#344555" stroke-width="2.2" stroke-linejoin="round"/><text x="300" y="160" font-family="PingFang SC,Heiti SC,sans-serif" font-size="30" fill="#253243" text-anchor="middle">→</text><text x="450" y="26" font-family="PingFang SC,Heiti SC,sans-serif" font-size="24" fill="#253243" text-anchor="middle">折好后（2层）</text><rect x="430" y="50" width="50" height="50" fill="#e5eedb" stroke="#344555" stroke-width="2.2" stroke-linejoin="round" /><rect x="480" y="50" width="50" height="50" fill="#e5eedb" stroke="#344555" stroke-width="2.2" stroke-linejoin="round" /><rect x="430" y="100" width="50" height="50" fill="#e5eedb" stroke="#344555" stroke-width="2.2" stroke-linejoin="round" /><rect x="480" y="100" width="50" height="50" fill="#e5eedb" stroke="#344555" stroke-width="2.2" stroke-linejoin="round" /><rect x="430" y="150" width="50" height="50" fill="#e5eedb" stroke="#344555" stroke-width="2.2" stroke-linejoin="round" /><rect x="480" y="150" width="50" height="50" fill="#e5eedb" stroke="#344555" stroke-width="2.2" stroke-linejoin="round" /><rect x="430" y="200" width="50" height="50" fill="#e5eedb" stroke="#344555" stroke-width="2.2" stroke-linejoin="round" /><rect x="480" y="200" width="50" height="50" fill="#e5eedb" stroke="#344555" stroke-width="2.2" stroke-linejoin="round" /><circle cx="455" cy="175" r="9" fill="#db675e" stroke="#344555" stroke-width="2.2" stroke-linejoin="round"/><text x="300" y="287" font-family="PingFang SC,Heiti SC,sans-serif" font-size="22" fill="#253243" text-anchor="middle">红色小圆点表示孔的位置</text></svg>