<svg xmlns="http://www.w3.org/2000/svg" width="320" height="320" viewBox="0 0 320 320"><rect width="100%" height="100%" fill="#fffdf7"/><polygon points="140,161 180,161 182,130 138,130" fill="#548cb3" stroke="#344555" stroke-width="2.2" stroke-linejoin="round"/><polygon points="139,137 156,137 156,116 143,116" fill="#43576a" stroke="#344555" stroke-width="2.2" stroke-linejoin="round"/><polygon points="164,137 181,137 177,116 164,116" fill="#43576a" stroke="#344555" stroke-width="2.2" stroke-linejoin="round"/><circle cx="133" cy="152" r="8" fill="#f2d8a8" stroke="#344555" stroke-width="2.2" stroke-linejoin="round"/><circle cx="187" cy="152" r="8" fill="#f2d8a8" stroke="#344555" stroke-width="2.2" stroke-linejoin="round"/><circle cx="160" cy="180" r="21" fill="#745440" stroke="#344555" stroke-width="2.2" stroke-linejoin="round"/><circle cx="160" cy="187" r="15" fill="#f2d8a8" stroke="#344555" stroke-width="2.2" stroke-linejoin="round"/><polygon points="156,200 164,200 160,206" fill="#f2d8a8" stroke="#344555" stroke-width="2.2" stroke-linejoin="round"/><polygon points="157,214 163,214 163,232 171,232 160,248 149,232 157,232" fill="#40566a" stroke="#344555" stroke-width="2.2" stroke-linejoin="round"/><circle cx="272" cy="160" r="20" fill="#db675e" stroke="#344555" stroke-width="2.2" stroke-linejoin="round"/></svg>